<svg viewBox="0 0 16 16" fill="none" xmlns="http://www.w3.org/2000/svg">
    <g id="3D" fill="currentCOlor">
        <path d="M3.20028 12.9659C2.58665 12.9659 2.04119 12.8608 1.56392 12.6506C1.08949 12.4403 0.714489 12.1477 0.43892 11.7727C0.163352 11.3977 0.0170454 10.9645 0 10.473H1.60227C1.61648 10.7088 1.6946 10.9148 1.83665 11.0909C1.97869 11.2642 2.16761 11.3991 2.40341 11.4957C2.6392 11.5923 2.90341 11.6406 3.19602 11.6406C3.50852 11.6406 3.78551 11.5866 4.02699 11.4787C4.26847 11.3679 4.45739 11.2145 4.59375 11.0185C4.73011 10.8224 4.79688 10.5966 4.79403 10.3409C4.79688 10.0767 4.72869 9.84375 4.58949 9.64205C4.45028 9.44034 4.24858 9.28267 3.98438 9.16903C3.72301 9.0554 3.40767 8.99858 3.03835 8.99858H2.26705V7.77983H3.03835C3.34233 7.77983 3.60795 7.72727 3.83523 7.62216C4.06534 7.51705 4.24574 7.36932 4.37642 7.17898C4.5071 6.9858 4.57102 6.76278 4.56818 6.50994C4.57102 6.26278 4.51562 6.0483 4.40199 5.86648C4.29119 5.68182 4.13352 5.53835 3.92898 5.43608C3.72727 5.33381 3.49006 5.28267 3.21733 5.28267C2.95028 5.28267 2.70313 5.33097 2.47585 5.42756C2.24858 5.52415 2.06534 5.66193 1.92614 5.84091C1.78693 6.01705 1.71307 6.22727 1.70455 6.47159H0.183239C0.194602 5.98295 0.335227 5.55398 0.605114 5.18466C0.877841 4.8125 1.24148 4.52273 1.69602 4.31534C2.15057 4.10511 2.66051 4 3.22585 4C3.80824 4 4.31392 4.10938 4.7429 4.32812C5.17472 4.54403 5.50852 4.83523 5.74432 5.2017C5.98011 5.56818 6.09801 5.97301 6.09801 6.41619C6.10085 6.90767 5.95597 7.3196 5.66335 7.65199C5.37358 7.98438 4.9929 8.2017 4.52131 8.30398V8.37216C5.13494 8.45739 5.60511 8.68466 5.93182 9.05398C6.26136 9.42045 6.42472 9.87642 6.42188 10.4219C6.42188 10.9105 6.28267 11.348 6.00426 11.7344C5.72869 12.1179 5.34801 12.419 4.86222 12.6378C4.37926 12.8565 3.82528 12.9659 3.20028 12.9659Z"
        />
        <path d="M10.9272 12.8466H7.96982V4.11932H10.9869C11.8533 4.11932 12.5977 4.29403 13.2198 4.64347C13.8448 4.99006 14.3249 5.48864 14.6602 6.1392C14.9954 6.78977 15.163 7.56818 15.163 8.47443C15.163 9.38352 14.994 10.1648 14.6559 10.8182C14.3207 11.4716 13.8363 11.973 13.2028 12.3224C12.5721 12.6719 11.8136 12.8466 10.9272 12.8466ZM9.55078 11.4787H10.8505C11.4585 11.4787 11.9656 11.3679 12.3718 11.1463C12.7781 10.9219 13.0835 10.5881 13.288 10.1449C13.4925 9.69886 13.5948 9.14205 13.5948 8.47443C13.5948 7.80682 13.4925 7.25284 13.288 6.8125C13.0835 6.36932 12.7809 6.03835 12.3803 5.8196C11.9826 5.59801 11.4883 5.48722 10.8974 5.48722H9.55078V11.4787Z"
        />
    </g>
</svg>
